<svg xmlns="http://www.w3.org/2000/svg" xmlns:xlink="http://www.w3.org/1999/xlink" width="50" zoomAndPan="magnify" viewBox="0 0 37.5 37.499999" height="50" preserveAspectRatio="xMidYMid meet" version="1.0"><defs><clipPath id="0c98477033"><path d="M 0 0 L 37.007812 0 L 37.007812 37.007812 L 0 37.007812 Z M 0 0 " clip-rule="nonzero"/></clipPath></defs><path fill="#c97f1b" d="M 19.601562 29.8125 C 13.503906 30.28125 8.15625 25.703125 7.6875 19.601562 C 7.214844 13.503906 11.796875 8.15625 17.894531 7.6875 C 23.996094 7.214844 29.339844 11.796875 29.8125 17.894531 C 30.28125 23.996094 25.703125 29.339844 19.601562 29.8125 Z M 17.839844 6.941406 C 11.316406 7.445312 6.4375 13.140625 6.941406 19.660156 C 7.445312 26.179688 13.140625 31.058594 19.660156 30.554688 C 26.179688 30.054688 31.058594 24.359375 30.554688 17.839844 C 30.054688 11.316406 24.359375 6.4375 17.839844 6.941406 " fill-opacity="1" fill-rule="nonzero"/><path fill="#35475b" d="M 17.894531 7.6875 C 11.796875 8.15625 7.214844 13.503906 7.6875 19.601562 C 8.15625 25.703125 13.503906 30.28125 19.601562 29.8125 C 25.703125 29.339844 30.28125 23.996094 29.8125 17.894531 C 29.339844 11.796875 23.996094 7.214844 17.894531 7.6875 " fill-opacity="1" fill-rule="nonzero"/><path fill="#c97f1b" d="M 18.914062 15.628906 C 18.933594 15.851562 18.765625 16.046875 18.542969 16.066406 C 18.320312 16.082031 18.125 15.914062 18.105469 15.691406 L 17.53125 8.234375 C 17.515625 8.011719 17.683594 7.816406 17.90625 7.796875 C 18.125 7.78125 18.324219 7.949219 18.339844 8.171875 Z M 18.5625 7.105469 L 17.148438 7.214844 C 16.703125 7.246094 16.367188 7.640625 16.402344 8.085938 L 17.011719 16.011719 C 17.046875 16.457031 17.441406 16.792969 17.882812 16.757812 L 19.296875 16.648438 C 19.742188 16.613281 20.078125 16.222656 20.042969 15.777344 L 19.433594 7.851562 C 19.398438 7.40625 19.007812 7.070312 18.5625 7.105469 " fill-opacity="1" fill-rule="nonzero"/><path fill="#c97f1b" d="M 19.96875 29.296875 C 19.988281 29.519531 19.820312 29.714844 19.597656 29.734375 C 19.375 29.75 19.179688 29.582031 19.160156 29.359375 L 18.585938 21.898438 C 18.566406 21.675781 18.734375 21.480469 18.957031 21.464844 C 19.179688 21.449219 19.375 21.617188 19.394531 21.835938 Z M 19.617188 20.773438 L 18.203125 20.878906 C 17.757812 20.914062 17.421875 21.308594 17.457031 21.75 L 18.066406 29.679688 C 18.101562 30.125 18.492188 30.460938 18.9375 30.425781 L 20.351562 30.316406 C 20.796875 30.28125 21.132812 29.890625 21.097656 29.445312 L 20.488281 21.515625 C 20.453125 21.074219 20.0625 20.738281 19.617188 20.773438 " fill-opacity="1" fill-rule="nonzero"/><path fill="#c97f1b" d="M 17.324219 15.96875 C 17.453125 16.152344 17.402344 16.40625 17.21875 16.53125 C 17.035156 16.65625 16.78125 16.609375 16.65625 16.425781 L 12.429688 10.253906 C 12.300781 10.070312 12.351562 9.816406 12.535156 9.691406 C 12.71875 9.5625 12.972656 9.609375 13.097656 9.796875 Z M 12.757812 8.761719 L 11.585938 9.5625 C 11.21875 9.8125 11.125 10.320312 11.375 10.6875 L 15.871094 17.25 C 16.121094 17.617188 16.628906 17.710938 16.996094 17.460938 L 18.167969 16.660156 C 18.535156 16.40625 18.628906 15.898438 18.378906 15.53125 L 13.882812 8.972656 C 13.632812 8.605469 13.125 8.507812 12.757812 8.761719 " fill-opacity="1" fill-rule="nonzero"/><path fill="#c97f1b" d="M 25.070312 27.277344 C 25.199219 27.460938 25.148438 27.714844 24.964844 27.839844 C 24.78125 27.964844 24.527344 27.917969 24.402344 27.734375 L 20.175781 21.5625 C 20.050781 21.378906 20.097656 21.125 20.28125 21 C 20.464844 20.871094 20.71875 20.921875 20.84375 21.105469 Z M 20.503906 20.070312 L 19.332031 20.871094 C 18.964844 21.125 18.871094 21.628906 19.121094 22 L 23.617188 28.558594 C 23.867188 28.925781 24.375 29.019531 24.742188 28.769531 L 25.914062 27.96875 C 26.28125 27.714844 26.375 27.207031 26.125 26.839844 L 21.628906 20.28125 C 21.378906 19.914062 20.871094 19.816406 20.503906 20.070312 " fill-opacity="1" fill-rule="nonzero"/><path fill="#c97f1b" d="M 16.117188 17.054688 C 16.320312 17.152344 16.40625 17.394531 16.308594 17.59375 C 16.210938 17.796875 15.96875 17.882812 15.765625 17.785156 L 9.019531 14.554688 C 8.820312 14.457031 8.734375 14.214844 8.828125 14.015625 C 8.925781 13.8125 9.167969 13.726562 9.371094 13.824219 Z M 8.558594 13.097656 L 7.945312 14.375 C 7.753906 14.777344 7.925781 15.265625 8.324219 15.457031 L 15.5 18.894531 C 15.898438 19.085938 16.386719 18.914062 16.578125 18.511719 L 17.191406 17.230469 C 17.382812 16.832031 17.214844 16.34375 16.8125 16.152344 L 9.640625 12.714844 C 9.238281 12.523438 8.75 12.695312 8.558594 13.097656 " fill-opacity="1" fill-rule="nonzero"/><path fill="#c97f1b" d="M 28.480469 22.976562 C 28.683594 23.070312 28.769531 23.316406 28.671875 23.515625 C 28.574219 23.71875 28.332031 23.804688 28.128906 23.707031 L 21.382812 20.476562 C 21.183594 20.378906 21.097656 20.136719 21.191406 19.933594 C 21.289062 19.734375 21.53125 19.648438 21.734375 19.742188 Z M 20.921875 19.019531 L 20.308594 20.296875 C 20.117188 20.699219 20.289062 21.1875 20.6875 21.378906 L 27.859375 24.8125 C 28.261719 25.007812 28.75 24.835938 28.941406 24.433594 L 29.554688 23.152344 C 29.746094 22.75 29.578125 22.265625 29.175781 22.070312 L 22.003906 18.636719 C 21.601562 18.445312 21.113281 18.617188 20.921875 19.019531 " fill-opacity="1" fill-rule="nonzero"/><path fill="#c97f1b" d="M 15.617188 18.601562 C 15.835938 18.582031 16.035156 18.75 16.050781 18.972656 C 16.066406 19.195312 15.898438 19.390625 15.675781 19.410156 L 8.21875 19.984375 C 7.996094 20 7.800781 19.832031 7.78125 19.609375 C 7.765625 19.386719 7.933594 19.191406 8.15625 19.175781 Z M 7.089844 18.953125 L 7.199219 20.367188 C 7.234375 20.8125 7.625 21.148438 8.070312 21.113281 L 15.996094 20.5 C 16.441406 20.46875 16.777344 20.074219 16.742188 19.632812 L 16.632812 18.214844 C 16.601562 17.773438 16.207031 17.4375 15.765625 17.472656 L 7.835938 18.082031 C 7.390625 18.117188 7.054688 18.507812 7.089844 18.953125 " fill-opacity="1" fill-rule="nonzero"/><path fill="#c97f1b" d="M 29.28125 17.546875 C 29.503906 17.527344 29.699219 17.695312 29.71875 17.917969 C 29.734375 18.140625 29.566406 18.335938 29.34375 18.355469 L 21.886719 18.929688 C 21.664062 18.945312 21.46875 18.777344 21.449219 18.554688 C 21.433594 18.335938 21.601562 18.136719 21.824219 18.121094 Z M 20.757812 17.898438 L 20.867188 19.3125 C 20.902344 19.757812 21.292969 20.09375 21.738281 20.058594 L 29.664062 19.449219 C 30.109375 19.414062 30.445312 19.023438 30.410156 18.578125 L 30.300781 17.164062 C 30.265625 16.71875 29.875 16.382812 29.429688 16.417969 L 21.503906 17.027344 C 21.058594 17.0625 20.722656 17.453125 20.757812 17.898438 " fill-opacity="1" fill-rule="nonzero"/><path fill="#c97f1b" d="M 15.953125 20.191406 C 16.136719 20.0625 16.390625 20.109375 16.515625 20.296875 C 16.640625 20.480469 16.59375 20.734375 16.410156 20.859375 L 10.238281 25.085938 C 10.054688 25.210938 9.800781 25.164062 9.675781 24.980469 C 9.550781 24.796875 9.597656 24.542969 9.78125 24.417969 Z M 8.746094 24.757812 L 9.546875 25.929688 C 9.800781 26.296875 10.304688 26.390625 10.675781 26.140625 L 17.234375 21.644531 C 17.601562 21.394531 17.699219 20.886719 17.445312 20.519531 L 16.644531 19.347656 C 16.390625 18.980469 15.882812 18.886719 15.515625 19.136719 L 8.957031 23.632812 C 8.589844 23.882812 8.492188 24.390625 8.746094 24.757812 " fill-opacity="1" fill-rule="nonzero"/><path fill="#c97f1b" d="M 27.261719 12.441406 C 27.445312 12.316406 27.699219 12.363281 27.824219 12.550781 C 27.953125 12.734375 27.902344 12.984375 27.71875 13.113281 L 21.546875 17.339844 C 21.363281 17.464844 21.109375 17.417969 20.984375 17.234375 C 20.859375 17.050781 20.90625 16.796875 21.089844 16.671875 Z M 20.054688 17.011719 L 20.855469 18.183594 C 21.109375 18.550781 21.617188 18.644531 21.984375 18.390625 L 28.542969 13.898438 C 28.910156 13.648438 29.007812 13.140625 28.753906 12.773438 L 27.953125 11.601562 C 27.699219 11.234375 27.195312 11.140625 26.824219 11.390625 L 20.265625 15.882812 C 19.898438 16.136719 19.804688 16.644531 20.054688 17.011719 " fill-opacity="1" fill-rule="nonzero"/><path fill="#c97f1b" d="M 17.039062 21.398438 C 17.136719 21.195312 17.378906 21.109375 17.582031 21.207031 C 17.78125 21.304688 17.867188 21.546875 17.769531 21.746094 L 14.539062 28.496094 C 14.445312 28.695312 14.199219 28.78125 14 28.6875 C 13.796875 28.589844 13.710938 28.347656 13.808594 28.144531 Z M 13.082031 28.957031 L 14.363281 29.570312 C 14.765625 29.761719 15.25 29.589844 15.445312 29.1875 L 18.878906 22.015625 C 19.070312 21.613281 18.898438 21.128906 18.496094 20.9375 L 17.21875 20.324219 C 16.816406 20.128906 16.328125 20.300781 16.136719 20.703125 L 12.703125 27.875 C 12.507812 28.277344 12.679688 28.765625 13.082031 28.957031 " fill-opacity="1" fill-rule="nonzero"/><path fill="#c97f1b" d="M 22.960938 9.035156 C 23.058594 8.832031 23.300781 8.746094 23.5 8.84375 C 23.703125 8.941406 23.789062 9.183594 23.691406 9.382812 L 20.460938 16.132812 C 20.363281 16.332031 20.121094 16.417969 19.917969 16.324219 C 19.71875 16.226562 19.632812 15.984375 19.730469 15.78125 Z M 19.003906 16.59375 L 20.28125 17.207031 C 20.683594 17.398438 21.171875 17.226562 21.363281 16.824219 L 24.796875 9.652344 C 24.992188 9.253906 24.820312 8.765625 24.417969 8.574219 L 23.136719 7.960938 C 22.734375 7.769531 22.25 7.9375 22.058594 8.339844 L 18.621094 15.511719 C 18.429688 15.914062 18.601562 16.402344 19.003906 16.59375 " fill-opacity="1" fill-rule="nonzero"/><path fill="#e2a21c" d="M 23.625 18.371094 C 23.417969 15.679688 21.066406 13.664062 18.371094 13.871094 C 15.679688 14.078125 13.664062 16.429688 13.871094 19.125 C 14.078125 21.820312 16.429688 23.835938 19.125 23.625 C 21.820312 23.417969 23.835938 21.066406 23.625 18.371094 " fill-opacity="1" fill-rule="nonzero"/><path fill="#35475b" d="M 19.203125 14.933594 C 19.171875 14.523438 18.8125 14.214844 18.402344 14.246094 C 17.992188 14.277344 17.683594 14.636719 17.714844 15.046875 C 17.746094 15.457031 18.105469 15.761719 18.515625 15.730469 C 18.925781 15.699219 19.234375 15.34375 19.203125 14.933594 " fill-opacity="1" fill-rule="nonzero"/><path fill="#ffffff" d="M 18.480469 15.273438 C 18.324219 15.285156 18.1875 15.167969 18.175781 15.011719 C 18.164062 14.855469 18.28125 14.714844 18.4375 14.703125 C 18.59375 14.691406 18.730469 14.808594 18.742188 14.96875 C 18.753906 15.125 18.636719 15.261719 18.480469 15.273438 " fill-opacity="1" fill-rule="nonzero"/><path fill="#35475b" d="M 19.78125 22.453125 C 19.75 22.039062 19.390625 21.734375 18.980469 21.765625 C 18.570312 21.796875 18.265625 22.15625 18.296875 22.566406 C 18.328125 22.976562 18.6875 23.28125 19.097656 23.25 C 19.507812 23.21875 19.8125 22.863281 19.78125 22.453125 " fill-opacity="1" fill-rule="nonzero"/><path fill="#ffffff" d="M 19.0625 22.792969 C 18.902344 22.804688 18.765625 22.6875 18.753906 22.53125 C 18.742188 22.375 18.859375 22.234375 19.015625 22.222656 C 19.171875 22.210938 19.3125 22.328125 19.324219 22.488281 C 19.335938 22.644531 19.21875 22.78125 19.0625 22.792969 " fill-opacity="1" fill-rule="nonzero"/><path fill="#35475b" d="M 16.371094 15.730469 C 16.058594 15.460938 15.585938 15.5 15.320312 15.8125 C 15.050781 16.121094 15.089844 16.59375 15.402344 16.859375 C 15.714844 17.128906 16.183594 17.09375 16.453125 16.78125 C 16.71875 16.46875 16.683594 15.996094 16.371094 15.730469 " fill-opacity="1" fill-rule="nonzero"/><path fill="#ffffff" d="M 15.90625 16.582031 C 15.832031 16.585938 15.757812 16.5625 15.699219 16.511719 C 15.582031 16.410156 15.566406 16.230469 15.667969 16.109375 C 15.71875 16.050781 15.789062 16.015625 15.863281 16.011719 C 15.941406 16.003906 16.011719 16.027344 16.070312 16.078125 C 16.191406 16.179688 16.203125 16.363281 16.101562 16.480469 C 16.054688 16.539062 15.984375 16.574219 15.90625 16.582031 " fill-opacity="1" fill-rule="nonzero"/><path fill="#35475b" d="M 22.097656 20.636719 C 21.785156 20.367188 21.3125 20.40625 21.046875 20.71875 C 20.777344 21.03125 20.816406 21.5 21.128906 21.769531 C 21.441406 22.035156 21.910156 22 22.179688 21.6875 C 22.445312 21.375 22.410156 20.90625 22.097656 20.636719 " fill-opacity="1" fill-rule="nonzero"/><path fill="#ffffff" d="M 21.632812 21.488281 C 21.558594 21.492188 21.484375 21.46875 21.425781 21.417969 C 21.367188 21.371094 21.332031 21.300781 21.328125 21.222656 C 21.320312 21.148438 21.347656 21.074219 21.394531 21.015625 C 21.445312 20.957031 21.515625 20.921875 21.589844 20.917969 C 21.667969 20.910156 21.742188 20.9375 21.796875 20.984375 C 21.855469 21.035156 21.890625 21.105469 21.898438 21.179688 C 21.902344 21.257812 21.878906 21.332031 21.828125 21.386719 C 21.78125 21.445312 21.710938 21.480469 21.632812 21.488281 " fill-opacity="1" fill-rule="nonzero"/><path fill="#35475b" d="M 14.933594 18.296875 C 14.523438 18.328125 14.214844 18.6875 14.246094 19.097656 C 14.277344 19.507812 14.636719 19.8125 15.046875 19.78125 C 15.457031 19.75 15.765625 19.390625 15.730469 18.980469 C 15.699219 18.570312 15.34375 18.265625 14.933594 18.296875 " fill-opacity="1" fill-rule="nonzero"/><path fill="#ffffff" d="M 15.011719 19.324219 C 14.855469 19.335938 14.714844 19.21875 14.703125 19.0625 C 14.691406 18.902344 14.808594 18.765625 14.96875 18.753906 C 15.125 18.742188 15.261719 18.859375 15.273438 19.015625 C 15.285156 19.171875 15.167969 19.3125 15.011719 19.324219 " fill-opacity="1" fill-rule="nonzero"/><path fill="#35475b" d="M 22.453125 17.714844 C 22.039062 17.746094 21.734375 18.105469 21.765625 18.515625 C 21.796875 18.925781 22.15625 19.234375 22.566406 19.203125 C 22.976562 19.171875 23.28125 18.8125 23.25 18.402344 C 23.21875 17.992188 22.863281 17.683594 22.453125 17.714844 " fill-opacity="1" fill-rule="nonzero"/><path fill="#ffffff" d="M 22.53125 18.742188 C 22.375 18.753906 22.234375 18.636719 22.222656 18.480469 C 22.210938 18.324219 22.328125 18.1875 22.488281 18.175781 C 22.644531 18.160156 22.78125 18.28125 22.792969 18.4375 C 22.804688 18.59375 22.6875 18.730469 22.53125 18.742188 " fill-opacity="1" fill-rule="nonzero"/><path fill="#35475b" d="M 15.730469 21.128906 C 15.460938 21.441406 15.5 21.910156 15.8125 22.179688 C 16.125 22.445312 16.59375 22.410156 16.859375 22.097656 C 17.128906 21.785156 17.09375 21.3125 16.78125 21.046875 C 16.46875 20.777344 15.996094 20.816406 15.730469 21.128906 " fill-opacity="1" fill-rule="nonzero"/><path fill="#ffffff" d="M 16.316406 21.898438 C 16.242188 21.902344 16.167969 21.878906 16.109375 21.828125 C 15.992188 21.726562 15.976562 21.546875 16.078125 21.425781 C 16.128906 21.367188 16.199219 21.332031 16.273438 21.328125 C 16.351562 21.320312 16.421875 21.347656 16.480469 21.394531 C 16.539062 21.445312 16.574219 21.515625 16.582031 21.589844 C 16.585938 21.667969 16.5625 21.738281 16.511719 21.796875 C 16.460938 21.855469 16.394531 21.890625 16.316406 21.898438 " fill-opacity="1" fill-rule="nonzero"/><path fill="#35475b" d="M 20.636719 15.402344 C 20.367188 15.714844 20.40625 16.183594 20.71875 16.453125 C 21.03125 16.71875 21.5 16.683594 21.769531 16.371094 C 22.035156 16.058594 22 15.585938 21.6875 15.320312 C 21.375 15.050781 20.90625 15.089844 20.636719 15.402344 " fill-opacity="1" fill-rule="nonzero"/><path fill="#ffffff" d="M 21.222656 16.167969 C 21.148438 16.175781 21.074219 16.152344 21.015625 16.101562 C 20.898438 16 20.882812 15.820312 20.984375 15.699219 C 21.035156 15.640625 21.105469 15.605469 21.179688 15.601562 C 21.257812 15.59375 21.332031 15.621094 21.386719 15.667969 C 21.507812 15.769531 21.519531 15.953125 21.417969 16.070312 C 21.371094 16.128906 21.300781 16.164062 21.222656 16.167969 " fill-opacity="1" fill-rule="nonzero"/><path fill="#35475b" d="M 20.664062 18.601562 C 20.582031 17.542969 19.660156 16.75 18.601562 16.832031 C 17.542969 16.914062 16.75 17.839844 16.832031 18.898438 C 16.914062 19.953125 17.839844 20.746094 18.898438 20.664062 C 19.953125 20.582031 20.746094 19.660156 20.664062 18.601562 " fill-opacity="1" fill-rule="nonzero"/><g clip-path="url(#0c98477033)"><path fill="#35475b" d="M 19.660156 30.554688 C 13.140625 31.058594 7.445312 26.179688 6.941406 19.660156 C 6.4375 13.140625 11.316406 7.445312 17.839844 6.941406 C 24.359375 6.4375 30.054688 11.316406 30.554688 17.839844 C 31.058594 24.359375 26.179688 30.054688 19.660156 30.554688 Z M 36.726562 17.683594 L 36.675781 17.046875 C 36.644531 16.648438 36.925781 16.292969 37.3125 16.226562 C 37.191406 15.320312 37.007812 14.433594 36.757812 13.566406 C 36.378906 13.664062 35.972656 13.457031 35.839844 13.078125 L 35.625 12.472656 C 35.492188 12.09375 35.679688 11.675781 36.042969 11.511719 C 35.691406 10.675781 35.28125 9.863281 34.8125 9.085938 C 34.46875 9.285156 34.019531 9.191406 33.789062 8.855469 L 33.429688 8.328125 C 33.199219 7.996094 33.273438 7.542969 33.582031 7.292969 C 33.03125 6.582031 32.421875 5.90625 31.765625 5.273438 C 31.484375 5.550781 31.027344 5.574219 30.71875 5.3125 L 30.234375 4.894531 C 29.925781 4.632812 29.878906 4.175781 30.113281 3.855469 C 29.386719 3.296875 28.628906 2.800781 27.839844 2.359375 C 27.644531 2.710938 27.203125 2.855469 26.835938 2.679688 L 26.257812 2.402344 C 25.890625 2.226562 25.726562 1.789062 25.882812 1.414062 C 25.042969 1.066406 24.175781 0.78125 23.292969 0.5625 C 23.203125 0.960938 22.808594 1.21875 22.40625 1.144531 L 21.773438 1.027344 C 21.371094 0.953125 21.097656 0.566406 21.15625 0.164062 C 20.257812 0.046875 19.351562 0 18.433594 0.015625 C 18.449219 0.421875 18.136719 0.777344 17.726562 0.808594 L 17.085938 0.859375 C 16.675781 0.890625 16.3125 0.585938 16.265625 0.179688 C 15.355469 0.300781 14.464844 0.484375 13.59375 0.730469 C 13.722656 1.125 13.511719 1.554688 13.121094 1.695312 L 12.515625 1.90625 C 12.117188 2.046875 11.679688 1.839844 11.535156 1.445312 C 10.695312 1.796875 9.882812 2.207031 9.101562 2.675781 C 9.335938 3.027344 9.246094 3.503906 8.898438 3.742188 L 8.371094 4.105469 C 8.023438 4.34375 7.542969 4.253906 7.304688 3.910156 C 6.589844 4.460938 5.910156 5.070312 5.273438 5.730469 C 5.589844 6.007812 5.628906 6.492188 5.351562 6.8125 L 4.9375 7.300781 C 4.660156 7.621094 4.175781 7.660156 3.851562 7.386719 C 3.296875 8.113281 2.796875 8.875 2.355469 9.667969 C 2.355469 9.667969 2.359375 9.667969 2.359375 9.671875 C 2.742188 9.851562 2.90625 10.316406 2.722656 10.699219 L 2.445312 11.273438 C 2.261719 11.65625 1.800781 11.820312 1.417969 11.636719 C 1.414062 11.636719 1.410156 11.632812 1.40625 11.628906 C 1.058594 12.476562 0.777344 13.34375 0.554688 14.230469 C 0.5625 14.230469 0.566406 14.230469 0.570312 14.230469 C 0.988281 14.308594 1.265625 14.710938 1.1875 15.128906 L 1.070312 15.757812 C 0.992188 16.175781 0.585938 16.453125 0.171875 16.375 C 0.167969 16.375 0.164062 16.371094 0.160156 16.371094 C 0.046875 17.269531 0 18.179688 0.015625 19.101562 C 0.0195312 19.101562 0.0195312 19.097656 0.0234375 19.097656 C 0.445312 19.066406 0.816406 19.386719 0.851562 19.808594 L 0.898438 20.445312 C 0.933594 20.867188 0.613281 21.242188 0.191406 21.273438 C 0.1875 21.273438 0.1875 21.273438 0.183594 21.273438 C 0.308594 22.183594 0.492188 23.078125 0.742188 23.949219 C 0.746094 23.945312 0.75 23.945312 0.753906 23.945312 C 1.152344 23.804688 1.59375 24.015625 1.738281 24.414062 L 1.949219 25.019531 C 2.089844 25.417969 1.878906 25.859375 1.480469 26 C 1.472656 26.003906 1.46875 26.003906 1.464844 26.003906 C 1.816406 26.847656 2.230469 27.660156 2.703125 28.441406 C 2.707031 28.4375 2.710938 28.4375 2.714844 28.433594 C 3.0625 28.195312 3.546875 28.285156 3.785156 28.632812 L 4.144531 29.164062 C 4.386719 29.511719 4.296875 29.992188 3.945312 30.234375 C 3.945312 30.234375 3.941406 30.234375 3.941406 30.238281 C 4.496094 30.949219 5.109375 31.628906 5.773438 32.261719 C 6.046875 31.941406 6.535156 31.90625 6.855469 32.179688 L 7.339844 32.597656 C 7.660156 32.871094 7.699219 33.355469 7.429688 33.679688 C 8.160156 34.234375 8.921875 34.730469 9.714844 35.167969 C 9.898438 34.789062 10.359375 34.628906 10.738281 34.8125 L 11.316406 35.089844 C 11.695312 35.269531 11.859375 35.730469 11.679688 36.109375 C 12.523438 36.453125 13.390625 36.734375 14.273438 36.953125 C 14.359375 36.542969 14.757812 36.269531 15.171875 36.347656 L 15.800781 36.464844 C 16.210938 36.542969 16.484375 36.933594 16.417969 37.34375 C 17.316406 37.457031 18.222656 37.5 19.140625 37.480469 C 19.125 37.070312 19.4375 36.714844 19.851562 36.683594 L 20.488281 36.632812 C 20.898438 36.601562 21.261719 36.902344 21.3125 37.308594 C 22.21875 37.183594 23.109375 36.996094 23.976562 36.746094 C 23.859375 36.355469 24.066406 35.933594 24.457031 35.796875 L 25.058594 35.585938 C 25.449219 35.449219 25.875 35.644531 26.03125 36.023438 C 26.867188 35.671875 27.679688 35.257812 28.457031 34.785156 C 28.242188 34.4375 28.339844 33.980469 28.675781 33.75 L 29.203125 33.386719 C 29.539062 33.15625 30 33.230469 30.246094 33.550781 C 30.957031 32.996094 31.632812 32.386719 32.265625 31.722656 C 31.984375 31.445312 31.960938 30.984375 32.222656 30.679688 L 32.640625 30.191406 C 32.902344 29.886719 33.355469 29.835938 33.675781 30.070312 C 34.230469 29.34375 34.726562 28.582031 35.164062 27.792969 C 34.820312 27.59375 34.679688 27.160156 34.851562 26.792969 L 35.128906 26.21875 C 35.304688 25.851562 35.734375 25.6875 36.105469 25.832031 C 36.449219 24.992188 36.730469 24.128906 36.945312 23.246094 C 36.5625 23.144531 36.316406 22.757812 36.390625 22.363281 L 36.507812 21.734375 C 36.582031 21.339844 36.949219 21.070312 37.339844 21.109375 C 37.453125 20.214844 37.5 19.308594 37.480469 18.394531 C 37.089844 18.386719 36.757812 18.082031 36.726562 17.683594 " fill-opacity="1" fill-rule="nonzero"/></g></svg>