<svg xmlns="http://www.w3.org/2000/svg" xmlns:xlink="http://www.w3.org/1999/xlink" width="400" zoomAndPan="magnify" viewBox="0 0 300 89.999999" height="120" preserveAspectRatio="xMidYMid meet" version="1.0"><rect x="-30" width="360" fill="#ffffff" y="-9" height="107.999999" fill-opacity="1"/><rect x="-30" width="360" fill="#ffffff" y="-9" height="107.999999" fill-opacity="1"/><path fill="#a5a5a5" d="M 396.335938 78.074219 L -7.914062 78.074219 L -7.914062 89.933594 L 396.335938 89.933594 Z M 396.335938 0.046875 L -7.914062 0.046875 L -7.914062 11.90625 L 396.335938 11.90625 Z M 396.335938 0.046875 " fill-opacity="1" fill-rule="evenodd"/><path fill="#464a51" d="M -7.917969 11.90625 L 396.332031 11.90625 L 396.332031 78.058594 L -7.917969 78.058594 Z M -7.917969 11.90625 " fill-opacity="1" fill-rule="evenodd"/><path fill="#bfbfbf" d="M 371.070312 45 C 371.070312 41.894531 368.554688 39.375 365.457031 39.375 L 326.15625 39.375 C 323.054688 39.375 320.539062 41.894531 320.539062 45 C 320.539062 48.089844 323.054688 50.609375 326.15625 50.609375 L 365.457031 50.609375 C 368.554688 50.609375 371.070312 48.089844 371.070312 45 Z M 270.007812 45 C 270.007812 41.894531 267.492188 39.375 264.394531 39.375 L 225.09375 39.375 C 221.992188 39.375 219.476562 41.894531 219.476562 45 C 219.476562 48.089844 221.992188 50.609375 225.09375 50.609375 L 264.394531 50.609375 C 267.492188 50.609375 270.007812 48.089844 270.007812 45 Z M 168.945312 45 C 168.945312 41.894531 166.429688 39.375 163.332031 39.375 L 124.03125 39.375 C 120.929688 39.375 118.414062 41.894531 118.414062 45 C 118.414062 48.089844 120.929688 50.609375 124.03125 50.609375 L 163.332031 50.609375 C 166.429688 50.609375 168.945312 48.089844 168.945312 45 Z M 67.882812 45 C 67.882812 41.894531 65.367188 39.375 62.269531 39.375 L 22.96875 39.375 C 19.867188 39.375 17.351562 41.894531 17.351562 45 C 17.351562 48.089844 19.867188 50.609375 22.96875 50.609375 L 62.269531 50.609375 C 65.367188 50.609375 67.882812 48.089844 67.882812 45 Z M 67.882812 45 " fill-opacity="1" fill-rule="evenodd"/></svg>