<svg xmlns="http://www.w3.org/2000/svg" xmlns:xlink="http://www.w3.org/1999/xlink" width="500" zoomAndPan="magnify" viewBox="0 0 375 374.999991" height="500" preserveAspectRatio="xMidYMid meet" version="1.0"><defs><clipPath id="9d9fb9fa1e"><path d="M 7.984375 7.984375 L 367.234375 7.984375 L 367.234375 367.234375 L 7.984375 367.234375 Z M 7.984375 7.984375 " clip-rule="nonzero"/></clipPath></defs><g clip-path="url(#9d9fb9fa1e)"><path fill="#dad8d6" d="M 367.214844 187.601562 C 367.214844 190.539062 367.144531 193.476562 367 196.414062 C 366.855469 199.347656 366.640625 202.28125 366.351562 205.207031 C 366.0625 208.128906 365.703125 211.046875 365.273438 213.953125 C 364.839844 216.863281 364.335938 219.757812 363.765625 222.640625 C 363.191406 225.523438 362.546875 228.390625 361.832031 231.242188 C 361.117188 234.09375 360.335938 236.925781 359.480469 239.738281 C 358.628906 242.550781 357.707031 245.34375 356.714844 248.109375 C 355.726562 250.878906 354.667969 253.621094 353.542969 256.335938 C 352.417969 259.050781 351.226562 261.738281 349.972656 264.394531 C 348.714844 267.050781 347.394531 269.675781 346.007812 272.269531 C 344.621094 274.863281 343.175781 277.417969 341.664062 279.941406 C 340.152344 282.460938 338.578125 284.945312 336.945312 287.386719 C 335.3125 289.832031 333.621094 292.234375 331.867188 294.597656 C 330.117188 296.957031 328.308594 299.273438 326.445312 301.546875 C 324.582031 303.820312 322.660156 306.042969 320.6875 308.222656 C 318.710938 310.398438 316.6875 312.527344 314.605469 314.605469 C 312.53125 316.683594 310.402344 318.710938 308.222656 320.683594 C 306.042969 322.660156 303.820312 324.578125 301.546875 326.445312 C 299.273438 328.308594 296.957031 330.117188 294.597656 331.867188 C 292.238281 333.617188 289.835938 335.3125 287.390625 336.945312 C 284.945312 338.578125 282.464844 340.148438 279.941406 341.660156 C 277.421875 343.171875 274.863281 344.621094 272.273438 346.003906 C 269.679688 347.390625 267.054688 348.710938 264.398438 349.96875 C 261.742188 351.226562 259.054688 352.417969 256.335938 353.542969 C 253.621094 354.667969 250.878906 355.722656 248.113281 356.714844 C 245.34375 357.703125 242.554688 358.628906 239.742188 359.480469 C 236.925781 360.332031 234.097656 361.117188 231.246094 361.832031 C 228.394531 362.546875 225.527344 363.191406 222.640625 363.761719 C 219.757812 364.335938 216.863281 364.839844 213.957031 365.269531 C 211.050781 365.703125 208.132812 366.0625 205.207031 366.351562 C 202.28125 366.636719 199.351562 366.855469 196.414062 366.996094 C 193.476562 367.140625 190.539062 367.214844 187.601562 367.214844 C 184.660156 367.214844 181.726562 367.140625 178.789062 366.996094 C 175.851562 366.855469 172.921875 366.636719 169.996094 366.347656 C 167.070312 366.0625 164.15625 365.703125 161.246094 365.269531 C 158.339844 364.839844 155.445312 364.335938 152.5625 363.761719 C 149.679688 363.191406 146.8125 362.546875 143.960938 361.832031 C 141.109375 361.117188 138.277344 360.332031 135.464844 359.480469 C 132.652344 358.625 129.859375 357.703125 127.09375 356.714844 C 124.324219 355.722656 121.582031 354.667969 118.867188 353.542969 C 116.148438 352.417969 113.464844 351.226562 110.804688 349.96875 C 108.148438 348.710938 105.523438 347.390625 102.933594 346.003906 C 100.339844 344.621094 97.78125 343.171875 95.261719 341.660156 C 92.738281 340.148438 90.257812 338.578125 87.8125 336.945312 C 85.371094 335.3125 82.964844 333.617188 80.605469 331.867188 C 78.246094 330.117188 75.925781 328.308594 73.652344 326.445312 C 71.382812 324.578125 69.15625 322.660156 66.976562 320.683594 C 64.800781 318.710938 62.671875 316.683594 60.59375 314.605469 C 58.515625 312.527344 56.492188 310.398438 54.515625 308.222656 C 52.542969 306.042969 50.621094 303.820312 48.757812 301.546875 C 46.894531 299.273438 45.085938 296.957031 43.332031 294.597656 C 41.582031 292.234375 39.890625 289.832031 38.257812 287.386719 C 36.625 284.945312 35.054688 282.460938 33.542969 279.941406 C 32.03125 277.417969 30.582031 274.863281 29.195312 272.269531 C 27.8125 269.675781 26.488281 267.050781 25.234375 264.394531 C 23.976562 261.738281 22.785156 259.050781 21.660156 256.335938 C 20.535156 253.621094 19.476562 250.878906 18.488281 248.109375 C 17.496094 245.34375 16.574219 242.550781 15.722656 239.738281 C 14.867188 236.925781 14.085938 234.09375 13.371094 231.242188 C 12.65625 228.390625 12.011719 225.523438 11.441406 222.640625 C 10.867188 219.757812 10.363281 216.863281 9.933594 213.953125 C 9.5 211.046875 9.140625 208.128906 8.851562 205.207031 C 8.5625 202.28125 8.347656 199.347656 8.203125 196.414062 C 8.058594 193.476562 7.988281 190.539062 7.988281 187.601562 C 7.988281 184.660156 8.058594 181.722656 8.203125 178.785156 C 8.347656 175.851562 8.5625 172.921875 8.851562 169.996094 C 9.140625 167.070312 9.5 164.152344 9.933594 161.246094 C 10.363281 158.335938 10.867188 155.441406 11.441406 152.558594 C 12.011719 149.675781 12.65625 146.808594 13.371094 143.957031 C 14.085938 141.105469 14.867188 138.273438 15.722656 135.460938 C 16.574219 132.648438 17.496094 129.859375 18.484375 127.089844 C 19.476562 124.320312 20.535156 121.582031 21.660156 118.863281 C 22.785156 116.148438 23.976562 113.460938 25.234375 110.804688 C 26.488281 108.148438 27.8125 105.523438 29.195312 102.929688 C 30.582031 100.339844 32.03125 97.78125 33.542969 95.257812 C 35.054688 92.738281 36.625 90.253906 38.257812 87.8125 C 39.890625 85.367188 41.585938 82.964844 43.335938 80.605469 C 45.085938 78.242188 46.894531 75.925781 48.757812 73.652344 C 50.621094 71.382812 52.542969 69.15625 54.515625 66.976562 C 56.492188 64.800781 58.515625 62.671875 60.59375 60.59375 C 62.671875 58.515625 64.800781 56.488281 66.976562 54.515625 C 69.15625 52.539062 71.382812 50.621094 73.652344 48.757812 C 75.925781 46.890625 78.246094 45.082031 80.605469 43.332031 C 82.964844 41.582031 85.371094 39.890625 87.8125 38.257812 C 90.257812 36.621094 92.738281 35.050781 95.261719 33.539062 C 97.78125 32.027344 100.339844 30.578125 102.929688 29.195312 C 105.523438 27.808594 108.148438 26.488281 110.804688 25.230469 C 113.464844 23.972656 116.148438 22.78125 118.867188 21.65625 C 121.582031 20.53125 124.324219 19.476562 127.09375 18.484375 C 129.859375 17.496094 132.648438 16.574219 135.460938 15.71875 C 138.273438 14.867188 141.105469 14.082031 143.957031 13.367188 C 146.808594 12.652344 149.675781 12.011719 152.558594 11.4375 C 155.441406 10.863281 158.339844 10.359375 161.246094 9.929688 C 164.152344 9.5 167.070312 9.140625 169.996094 8.851562 C 172.921875 8.5625 175.851562 8.347656 178.789062 8.203125 C 181.726562 8.058594 184.660156 7.984375 187.601562 7.984375 C 190.539062 7.984375 193.476562 8.058594 196.414062 8.203125 C 199.351562 8.347656 202.28125 8.5625 205.207031 8.851562 C 208.132812 9.140625 211.050781 9.5 213.957031 9.929688 C 216.863281 10.359375 219.757812 10.863281 222.644531 11.4375 C 225.527344 12.011719 228.394531 12.65625 231.246094 13.367188 C 234.097656 14.082031 236.925781 14.867188 239.742188 15.71875 C 242.554688 16.574219 245.34375 17.496094 248.113281 18.484375 C 250.878906 19.476562 253.621094 20.535156 256.335938 21.65625 C 259.054688 22.78125 261.742188 23.972656 264.398438 25.230469 C 267.054688 26.488281 269.679688 27.808594 272.273438 29.195312 C 274.863281 30.578125 277.421875 32.027344 279.941406 33.539062 C 282.464844 35.050781 284.945312 36.621094 287.390625 38.257812 C 289.835938 39.890625 292.238281 41.582031 294.597656 43.332031 C 296.957031 45.082031 299.273438 46.890625 301.546875 48.757812 C 303.820312 50.621094 306.042969 52.539062 308.222656 54.515625 C 310.402344 56.488281 312.53125 58.515625 314.605469 60.59375 C 316.6875 62.671875 318.710938 64.800781 320.6875 66.976562 C 322.660156 69.15625 324.582031 71.382812 326.445312 73.652344 C 328.308594 75.925781 330.117188 78.242188 331.867188 80.605469 C 333.621094 82.964844 335.3125 85.367188 336.945312 87.8125 C 338.578125 90.253906 340.152344 92.738281 341.664062 95.257812 C 343.175781 97.78125 344.621094 100.339844 346.007812 102.929688 C 347.394531 105.523438 348.714844 108.148438 349.972656 110.804688 C 351.226562 113.460938 352.417969 116.148438 353.542969 118.863281 C 354.667969 121.582031 355.726562 124.320312 356.714844 127.089844 C 357.707031 129.855469 358.628906 132.648438 359.480469 135.460938 C 360.335938 138.273438 361.117188 141.105469 361.832031 143.957031 C 362.546875 146.808594 363.191406 149.675781 363.765625 152.558594 C 364.335938 155.441406 364.839844 158.335938 365.273438 161.246094 C 365.703125 164.152344 366.0625 167.070312 366.351562 169.996094 C 366.640625 172.921875 366.855469 175.851562 367 178.785156 C 367.144531 181.722656 367.214844 184.660156 367.214844 187.601562 Z M 367.214844 187.601562 " fill-opacity="1" fill-rule="nonzero"/><path fill="#dad8d6" d="M 367.214844 187.601562 C 367.214844 190.539062 367.144531 193.476562 367 196.414062 C 366.855469 199.347656 366.640625 202.28125 366.351562 205.207031 C 366.0625 208.128906 365.703125 211.046875 365.273438 213.953125 C 364.839844 216.863281 364.335938 219.757812 363.765625 222.640625 C 363.191406 225.523438 362.546875 228.390625 361.832031 231.242188 C 361.117188 234.09375 360.335938 236.925781 359.480469 239.738281 C 358.628906 242.550781 357.707031 245.34375 356.714844 248.109375 C 355.726562 250.878906 354.667969 253.621094 353.542969 256.335938 C 352.417969 259.050781 351.226562 261.738281 349.972656 264.394531 C 348.714844 267.050781 347.394531 269.675781 346.007812 272.269531 C 344.621094 274.863281 343.175781 277.417969 341.664062 279.941406 C 340.152344 282.460938 338.578125 284.945312 336.945312 287.386719 C 335.3125 289.832031 333.621094 292.234375 331.867188 294.597656 C 330.117188 296.957031 328.308594 299.273438 326.445312 301.546875 C 324.582031 303.820312 322.660156 306.042969 320.6875 308.222656 C 318.710938 310.398438 316.6875 312.527344 314.605469 314.605469 C 312.53125 316.683594 310.402344 318.710938 308.222656 320.683594 C 306.042969 322.660156 303.820312 324.578125 301.546875 326.445312 C 299.273438 328.308594 296.957031 330.117188 294.597656 331.867188 C 292.238281 333.617188 289.835938 335.3125 287.390625 336.945312 C 284.945312 338.578125 282.464844 340.148438 279.941406 341.660156 C 277.421875 343.171875 274.863281 344.621094 272.273438 346.003906 C 269.679688 347.390625 267.054688 348.710938 264.398438 349.96875 C 261.742188 351.226562 259.054688 352.417969 256.335938 353.542969 C 253.621094 354.667969 250.878906 355.722656 248.113281 356.714844 C 245.34375 357.703125 242.554688 358.628906 239.742188 359.480469 C 236.925781 360.332031 234.097656 361.117188 231.246094 361.832031 C 228.394531 362.546875 225.527344 363.191406 222.640625 363.761719 C 219.757812 364.335938 216.863281 364.839844 213.957031 365.269531 C 211.050781 365.703125 208.132812 366.0625 205.207031 366.351562 C 202.28125 366.636719 199.351562 366.855469 196.414062 366.996094 C 193.476562 367.140625 190.539062 367.214844 187.601562 367.214844 C 184.660156 367.214844 181.726562 367.140625 178.789062 366.996094 C 175.851562 366.855469 172.921875 366.636719 169.996094 366.347656 C 167.070312 366.0625 164.15625 365.703125 161.246094 365.269531 C 158.339844 364.839844 155.445312 364.335938 152.5625 363.761719 C 149.679688 363.191406 146.8125 362.546875 143.960938 361.832031 C 141.109375 361.117188 138.277344 360.332031 135.464844 359.480469 C 132.652344 358.625 129.859375 357.703125 127.09375 356.714844 C 124.324219 355.722656 121.582031 354.667969 118.867188 353.542969 C 116.148438 352.417969 113.464844 351.226562 110.804688 349.96875 C 108.148438 348.710938 105.523438 347.390625 102.933594 346.003906 C 100.339844 344.621094 97.78125 343.171875 95.261719 341.660156 C 92.738281 340.148438 90.257812 338.578125 87.8125 336.945312 C 85.371094 335.3125 82.964844 333.617188 80.605469 331.867188 C 78.246094 330.117188 75.925781 328.308594 73.652344 326.445312 C 71.382812 324.578125 69.15625 322.660156 66.976562 320.683594 C 64.800781 318.710938 62.671875 316.683594 60.59375 314.605469 C 58.515625 312.527344 56.492188 310.398438 54.515625 308.222656 C 52.542969 306.042969 50.621094 303.820312 48.757812 301.546875 C 46.894531 299.273438 45.085938 296.957031 43.332031 294.597656 C 41.582031 292.234375 39.890625 289.832031 38.257812 287.386719 C 36.625 284.945312 35.054688 282.460938 33.542969 279.941406 C 32.03125 277.417969 30.582031 274.863281 29.195312 272.269531 C 27.8125 269.675781 26.488281 267.050781 25.234375 264.394531 C 23.976562 261.738281 22.785156 259.050781 21.660156 256.335938 C 20.535156 253.621094 19.476562 250.878906 18.488281 248.109375 C 17.496094 245.34375 16.574219 242.550781 15.722656 239.738281 C 14.867188 236.925781 14.085938 234.09375 13.371094 231.242188 C 12.65625 228.390625 12.011719 225.523438 11.441406 222.640625 C 10.867188 219.757812 10.363281 216.863281 9.933594 213.953125 C 9.5 211.046875 9.140625 208.128906 8.851562 205.207031 C 8.5625 202.28125 8.347656 199.347656 8.203125 196.414062 C 8.058594 193.476562 7.988281 190.539062 7.988281 187.601562 C 7.988281 184.660156 8.058594 181.722656 8.203125 178.785156 C 8.347656 175.851562 8.5625 172.921875 8.851562 169.996094 C 9.140625 167.070312 9.5 164.152344 9.933594 161.246094 C 10.363281 158.335938 10.867188 155.441406 11.441406 152.558594 C 12.011719 149.675781 12.65625 146.808594 13.371094 143.957031 C 14.085938 141.105469 14.867188 138.273438 15.722656 135.460938 C 16.574219 132.648438 17.496094 129.859375 18.484375 127.089844 C 19.476562 124.320312 20.535156 121.582031 21.660156 118.863281 C 22.785156 116.148438 23.976562 113.460938 25.234375 110.804688 C 26.488281 108.148438 27.8125 105.523438 29.195312 102.929688 C 30.582031 100.339844 32.03125 97.78125 33.542969 95.257812 C 35.054688 92.738281 36.625 90.253906 38.257812 87.8125 C 39.890625 85.367188 41.585938 82.964844 43.335938 80.605469 C 45.085938 78.242188 46.894531 75.925781 48.757812 73.652344 C 50.621094 71.382812 52.542969 69.15625 54.515625 66.976562 C 56.492188 64.800781 58.515625 62.671875 60.59375 60.59375 C 62.671875 58.515625 64.800781 56.488281 66.976562 54.515625 C 69.15625 52.539062 71.382812 50.621094 73.652344 48.757812 C 75.925781 46.890625 78.246094 45.082031 80.605469 43.332031 C 82.964844 41.582031 85.371094 39.890625 87.8125 38.257812 C 90.257812 36.621094 92.738281 35.050781 95.261719 33.539062 C 97.78125 32.027344 100.339844 30.578125 102.929688 29.195312 C 105.523438 27.808594 108.148438 26.488281 110.804688 25.230469 C 113.464844 23.972656 116.148438 22.78125 118.867188 21.65625 C 121.582031 20.53125 124.324219 19.476562 127.09375 18.484375 C 129.859375 17.496094 132.648438 16.574219 135.460938 15.71875 C 138.273438 14.867188 141.105469 14.082031 143.957031 13.367188 C 146.808594 12.652344 149.675781 12.011719 152.558594 11.4375 C 155.441406 10.863281 158.339844 10.359375 161.246094 9.929688 C 164.152344 9.5 167.070312 9.140625 169.996094 8.851562 C 172.921875 8.5625 175.851562 8.347656 178.789062 8.203125 C 181.726562 8.058594 184.660156 7.984375 187.601562 7.984375 C 190.539062 7.984375 193.476562 8.058594 196.414062 8.203125 C 199.351562 8.347656 202.28125 8.5625 205.207031 8.851562 C 208.132812 9.140625 211.050781 9.5 213.957031 9.929688 C 216.863281 10.359375 219.757812 10.863281 222.644531 11.4375 C 225.527344 12.011719 228.394531 12.65625 231.246094 13.367188 C 234.097656 14.082031 236.925781 14.867188 239.742188 15.71875 C 242.554688 16.574219 245.34375 17.496094 248.113281 18.484375 C 250.878906 19.476562 253.621094 20.535156 256.335938 21.65625 C 259.054688 22.78125 261.742188 23.972656 264.398438 25.230469 C 267.054688 26.488281 269.679688 27.808594 272.273438 29.195312 C 274.863281 30.578125 277.421875 32.027344 279.941406 33.539062 C 282.464844 35.050781 284.945312 36.621094 287.390625 38.257812 C 289.835938 39.890625 292.238281 41.582031 294.597656 43.332031 C 296.957031 45.082031 299.273438 46.890625 301.546875 48.757812 C 303.820312 50.621094 306.042969 52.539062 308.222656 54.515625 C 310.402344 56.488281 312.53125 58.515625 314.605469 60.59375 C 316.6875 62.671875 318.710938 64.800781 320.6875 66.976562 C 322.660156 69.15625 324.582031 71.382812 326.445312 73.652344 C 328.308594 75.925781 330.117188 78.242188 331.867188 80.605469 C 333.621094 82.964844 335.3125 85.367188 336.945312 87.8125 C 338.578125 90.253906 340.152344 92.738281 341.664062 95.257812 C 343.175781 97.78125 344.621094 100.339844 346.007812 102.929688 C 347.394531 105.523438 348.714844 108.148438 349.972656 110.804688 C 351.226562 113.460938 352.417969 116.148438 353.542969 118.863281 C 354.667969 121.582031 355.726562 124.320312 356.714844 127.089844 C 357.707031 129.855469 358.628906 132.648438 359.480469 135.460938 C 360.335938 138.273438 361.117188 141.105469 361.832031 143.957031 C 362.546875 146.808594 363.191406 149.675781 363.765625 152.558594 C 364.335938 155.441406 364.839844 158.335938 365.273438 161.246094 C 365.703125 164.152344 366.0625 167.070312 366.351562 169.996094 C 366.640625 172.921875 366.855469 175.851562 367 178.785156 C 367.144531 181.722656 367.214844 184.660156 367.214844 187.601562 Z M 367.214844 187.601562 " fill-opacity="1" fill-rule="nonzero"/></g><path fill="#cac5bf" d="M 265.554688 57.867188 C 288.195312 57.867188 308.410156 78.75 317.953125 99.277344 C 330.125 125.496094 324.714844 142.488281 302.074219 142.488281 C 279.4375 142.488281 275.023438 132.09375 275.023438 109.457031 C 275.023438 86.816406 242.917969 57.867188 265.554688 57.867188 Z M 265.554688 57.867188 " fill-opacity="1" fill-rule="evenodd"/><path fill="#cac5bf" d="M 198.683594 86.960938 C 176.542969 81.050781 149.039062 110.238281 175.734375 120.753906 C 193.722656 127.847656 227.539062 106.894531 210.59375 90.378906 Z M 198.683594 86.960938 " fill-opacity="1" fill-rule="evenodd"/><path fill="#cac5bf" d="M 198.683594 86.960938 C 176.542969 81.050781 149.039062 110.238281 175.734375 120.753906 C 193.722656 127.847656 227.539062 106.894531 210.59375 90.378906 Z M 198.683594 86.960938 " fill-opacity="1" fill-rule="evenodd"/><path fill="#cac5bf" d="M 111.140625 350.152344 C 119.851562 337.503906 137.171875 329.484375 148.066406 337.90625 L 158.152344 346.164062 C 160.382812 352.859375 159.789062 359.167969 157.488281 364.699219 C 141.207031 361.945312 125.640625 356.988281 111.140625 350.152344 Z M 111.140625 350.152344 " fill-opacity="1" fill-rule="evenodd"/><path fill="#cac5bf" d="M 111.140625 350.152344 C 119.851562 337.503906 137.171875 329.484375 148.066406 337.90625 L 158.152344 346.164062 C 160.382812 352.859375 159.789062 359.167969 157.488281 364.699219 C 141.207031 361.945312 125.640625 356.988281 111.140625 350.152344 Z M 111.140625 350.152344 " fill-opacity="1" fill-rule="evenodd"/><path fill="#cac5bf" d="M 53.523438 68.09375 L 58.601562 70.160156 C 76.472656 94.507812 42.183594 125.261719 22.484375 116.8125 C 30.199219 98.871094 40.757812 82.453125 53.523438 68.09375 Z M 53.523438 68.09375 " fill-opacity="1" fill-rule="evenodd"/><path fill="#cac5bf" d="M 53.523438 68.09375 L 58.601562 70.160156 C 76.472656 94.507812 42.183594 125.261719 22.484375 116.8125 C 30.199219 98.871094 40.757812 82.453125 53.523438 68.09375 Z M 53.523438 68.09375 " fill-opacity="1" fill-rule="evenodd"/><path fill="#cac5bf" d="M 74.289062 176.753906 C 39.667969 194.625 57.226562 272.601562 104.59375 256.25 C 136.511719 245.21875 139.664062 172.128906 93.34375 167.5 Z M 74.289062 176.753906 " fill-opacity="1" fill-rule="evenodd"/><path fill="#cac5bf" d="M 74.289062 176.753906 C 39.667969 194.625 57.226562 272.601562 104.59375 256.25 C 136.511719 245.21875 139.664062 172.128906 93.34375 167.5 Z M 74.289062 176.753906 " fill-opacity="1" fill-rule="evenodd"/><path fill="#cac5bf" d="M 323.171875 263.417969 C 327.679688 221.628906 223.90625 210.925781 208.316406 265.101562 C 197.828125 301.625 280.71875 331.644531 320.015625 286.199219 Z M 323.171875 263.417969 " fill-opacity="1" fill-rule="evenodd"/><path fill="#cac5bf" d="M 323.171875 263.417969 C 327.679688 221.628906 223.90625 210.925781 208.316406 265.101562 C 197.828125 301.625 280.71875 331.644531 320.015625 286.199219 Z M 323.171875 263.417969 " fill-opacity="1" fill-rule="evenodd"/></svg>